<svg width="356" height="105" viewBox="0 0 356 105" fill="none" xmlns="http://www.w3.org/2000/svg">
<path d="M342.815 105H13.1852C5.93333 105 0 99.0938 0 91.875V13.125C0 5.90625 5.93333 0 13.1852 0H342.815C350.067 0 356 5.90625 356 13.125V91.875C356 99.0938 350.067 105 342.815 105Z" fill="black"/>
<path d="M342.815 2.1C348.933 2.1 353.89 7.035 353.89 13.125V91.875C353.89 97.965 348.933 102.9 342.815 102.9H13.1852C7.06726 102.9 2.10963 97.965 2.10963 91.875V13.125C2.10963 7.035 7.06726 2.1 13.1852 2.1H342.815ZM342.815 0H13.1852C5.93333 0 0 5.90625 0 13.125V91.875C0 99.0938 5.93333 105 13.1852 105H342.815C350.067 105 356 99.0938 356 91.875V13.125C356 5.90625 350.067 0 342.815 0Z" fill="#A6A6A6"/>
<path d="M125.048 26.8799C125.048 29.0849 124.389 30.8437 123.071 32.1299C121.594 33.6787 119.642 34.4662 117.269 34.4662C114.975 34.4662 113.05 33.6787 111.441 32.1037C109.833 30.5287 109.042 28.5599 109.042 26.2499C109.042 23.9137 109.833 21.9712 111.441 20.3962C113.05 18.8212 114.975 18.0337 117.269 18.0337C118.403 18.0337 119.484 18.2437 120.513 18.6899C121.541 19.1362 122.359 19.7137 122.991 20.4487L121.594 21.8399C120.539 20.6062 119.115 19.9762 117.269 19.9762C115.608 19.9762 114.157 20.5537 112.944 21.7349C111.731 22.8899 111.125 24.4124 111.125 26.2762C111.125 28.1399 111.731 29.6624 112.944 30.8174C114.157 31.9724 115.608 32.5762 117.269 32.5762C119.036 32.5762 120.513 31.9987 121.699 30.8174C122.464 30.0562 122.912 28.9799 123.018 27.6149H117.269V25.6987H124.943C124.996 26.1187 125.048 26.5124 125.048 26.8799Z" fill="white" stroke="white" stroke-width="0.2" stroke-miterlimit="10"/>
<path d="M137.205 20.3175H130.006V25.305H136.493V27.195H130.006V32.1825H137.205V34.125H127.976V18.375H137.205V20.3175Z" fill="white" stroke="white" stroke-width="0.2" stroke-miterlimit="10"/>
<path d="M145.775 34.125H143.745V20.3175H139.314V18.375H150.179V20.3175H145.749V34.125H145.775Z" fill="white" stroke="white" stroke-width="0.2" stroke-miterlimit="10"/>
<path d="M158.064 34.125V18.375H160.094V34.125H158.064Z" fill="white" stroke="white" stroke-width="0.2" stroke-miterlimit="10"/>
<path d="M169.114 34.125H167.083V20.3175H162.653V18.375H173.517V20.3175H169.087V34.125H169.114Z" fill="white" stroke="white" stroke-width="0.2" stroke-miterlimit="10"/>
<path d="M194.113 32.0774C192.557 33.6787 190.632 34.4662 188.311 34.4662C185.99 34.4662 184.065 33.6787 182.51 32.0774C180.954 30.4762 180.189 28.5337 180.189 26.2499C180.189 23.9662 180.954 21.9974 182.51 20.4224C184.065 18.8212 185.99 18.0337 188.311 18.0337C190.605 18.0337 192.53 18.8212 194.113 20.4224C195.668 22.0237 196.459 23.9662 196.459 26.2499C196.433 28.5599 195.668 30.5024 194.113 32.0774ZM184.013 30.7649C185.173 31.9462 186.623 32.5237 188.311 32.5237C189.999 32.5237 191.449 31.9462 192.609 30.7649C193.77 29.5837 194.376 28.0874 194.376 26.2499C194.376 24.4124 193.796 22.9162 192.609 21.7349C191.449 20.5537 189.999 19.9499 188.311 19.9499C186.623 19.9499 185.173 20.5274 184.013 21.7087C182.852 22.9162 182.246 24.4124 182.246 26.2499C182.246 28.0874 182.852 29.5837 184.013 30.7649Z" fill="white" stroke="white" stroke-width="0.2" stroke-miterlimit="10"/>
<path d="M199.307 34.125V18.375H201.786L209.486 30.6338H209.565L209.486 27.5888V18.375H211.517V34.125H209.407L201.364 21.2887H201.285L201.364 24.3338V34.125H199.307Z" fill="white" stroke="white" stroke-width="0.2" stroke-miterlimit="10"/>
<path d="M179.688 57.0939C173.491 57.0939 168.428 61.7926 168.428 68.2501C168.428 74.6814 173.491 79.4064 179.688 79.4064C185.885 79.4064 190.948 74.6814 190.948 68.2501C190.948 61.7926 185.885 57.0939 179.688 57.0939ZM179.688 75.0226C176.286 75.0226 173.359 72.2401 173.359 68.2501C173.359 64.2339 176.286 61.4776 179.688 61.4776C183.09 61.4776 186.017 64.2339 186.017 68.2501C186.017 72.2401 183.063 75.0226 179.688 75.0226ZM155.111 57.0939C148.914 57.0939 143.85 61.7926 143.85 68.2501C143.85 74.6814 148.914 79.4064 155.111 79.4064C161.308 79.4064 166.371 74.6814 166.371 68.2501C166.371 61.7926 161.308 57.0939 155.111 57.0939ZM155.111 75.0226C151.709 75.0226 148.782 72.2401 148.782 68.2501C148.782 64.2339 151.709 61.4776 155.111 61.4776C158.512 61.4776 161.44 64.2339 161.44 68.2501C161.44 72.2401 158.512 75.0226 155.111 75.0226ZM125.892 60.5326V65.2576H137.284C136.941 67.9089 136.045 69.8776 134.7 71.2164C133.039 72.8701 130.454 74.6814 125.919 74.6814C118.904 74.6814 113.419 69.0639 113.419 62.0814C113.419 55.0988 118.904 49.4814 125.919 49.4814C129.69 49.4814 132.458 50.9513 134.489 52.8676L137.838 49.5339C134.99 46.8301 131.219 44.7563 125.892 44.7563C116.293 44.7563 108.224 52.5263 108.224 62.1076C108.224 71.6626 116.293 79.4589 125.892 79.4589C131.087 79.4589 134.99 77.7789 138.049 74.6026C141.187 71.4789 142.163 67.0689 142.163 63.5251C142.163 62.4226 142.084 61.3988 141.899 60.5589H125.892V60.5326ZM245.376 64.2076C244.453 61.7138 241.605 57.0939 235.778 57.0939C230.003 57.0939 225.203 61.6089 225.203 68.2501C225.203 74.4976 229.95 79.4064 236.331 79.4064C241.474 79.4064 244.453 76.2826 245.667 74.4714L241.843 71.9251C240.577 73.7889 238.837 75.0226 236.331 75.0226C233.826 75.0226 232.033 73.8676 230.899 71.6364L245.904 65.4676L245.376 64.2076ZM230.082 67.9351C229.95 63.6301 233.431 61.4251 235.936 61.4251C237.887 61.4251 239.549 62.3963 240.102 63.7876L230.082 67.9351ZM217.898 78.7501H222.83V45.9376H217.898V78.7501ZM209.829 59.5876H209.645C208.537 58.2751 206.427 57.0939 203.738 57.0939C198.121 57.0939 192.979 62.0026 192.979 68.3026C192.979 74.5501 198.121 79.4326 203.738 79.4326C206.401 79.4326 208.537 78.2514 209.645 76.8864H209.803V78.4876C209.803 82.7664 207.509 85.0501 203.817 85.0501C200.811 85.0501 198.938 82.8976 198.173 81.0863L193.875 82.8714C195.114 85.8376 198.384 89.4601 203.817 89.4601C209.592 89.4601 214.47 86.0739 214.47 77.8314V57.7764H209.803V59.5876H209.829ZM204.16 75.0226C200.758 75.0226 197.91 72.1876 197.91 68.3026C197.91 64.3651 200.758 61.5039 204.16 61.5039C207.509 61.5039 210.146 64.3914 210.146 68.3026C210.172 72.1876 207.535 75.0226 204.16 75.0226ZM268.477 45.9376H256.689V78.7501H261.621V66.3076H268.503C273.962 66.3076 279.315 62.3701 279.315 56.1226C279.315 49.8751 273.909 45.9376 268.477 45.9376ZM268.582 61.7401H261.594V50.4788H268.582C272.274 50.4788 274.357 53.5239 274.357 56.0964C274.357 58.6689 272.274 61.7401 268.582 61.7401ZM299.014 57.0413C295.454 57.0413 291.762 58.6163 290.232 62.0551L294.61 63.8664C295.533 62.0551 297.273 61.4514 299.093 61.4514C301.651 61.4514 304.235 62.9739 304.261 65.6776V66.0189C303.365 65.5201 301.466 64.7589 299.119 64.7589C294.399 64.7589 289.626 67.3314 289.626 72.1351C289.626 76.5189 293.476 79.3539 297.801 79.3539C301.097 79.3539 302.943 77.8839 304.077 76.1514H304.235V78.6976H308.982V66.1239C309.008 60.2964 304.631 57.0413 299.014 57.0413ZM298.407 75.0226C296.799 75.0226 294.557 74.2089 294.557 72.2401C294.557 69.7201 297.352 68.7489 299.779 68.7489C301.941 68.7489 302.969 69.2214 304.261 69.8514C303.892 72.8701 301.255 75.0226 298.407 75.0226ZM326.307 57.7501L320.664 71.9776H320.506L314.651 57.7501H309.351L318.132 77.6476L313.122 88.6989H318.264L331.792 57.7501H326.307ZM282.005 78.7501H286.936V45.9376H282.005V78.7501Z" fill="white"/>
<path d="M27.5304 19.7925C26.7657 20.6063 26.3174 21.8663 26.3174 23.4675V81.5325C26.3174 83.16 26.7657 84.42 27.5304 85.2075L27.715 85.3913L60.3879 52.8938V52.5V52.1063L27.715 19.6088L27.5304 19.7925Z" fill="url(#paint0_linear)"/>
<path d="M71.2796 63.735L60.3887 52.8938V52.5V52.1063L71.2796 41.265L71.517 41.3963L84.4121 48.6938C88.1039 50.7675 88.1039 54.18 84.4121 56.28L71.517 63.5775L71.2796 63.735Z" fill="url(#paint1_linear)"/>
<path d="M71.517 63.6037L60.3887 52.5L27.5312 85.2075C28.7443 86.4937 30.7484 86.6512 33.0163 85.365L71.517 63.6037Z" fill="url(#paint2_linear)"/>
<path d="M71.5165 41.4225L32.9894 19.635C30.7216 18.3488 28.7174 18.5063 27.5044 19.7925L60.3882 52.5L71.5165 41.4225Z" fill="url(#paint3_linear)"/>
<path opacity="0.2" d="M71.2787 63.3413L32.9889 84.9976C30.8529 86.2051 28.9279 86.1263 27.7149 85.0238L27.5303 85.2076L27.7149 85.3913C28.9543 86.4938 30.8529 86.5726 32.9889 85.3651L71.5161 63.5776L71.2787 63.3413Z" fill="black"/>
<path opacity="0.12" d="M27.5304 84.8402C26.7657 84.0264 26.3174 82.7664 26.3174 81.1652V81.5589C26.3174 83.1864 26.7657 84.4464 27.5304 85.2339L27.715 85.0502L27.5304 84.8402Z" fill="black"/>
<path opacity="0.12" d="M84.4112 55.9125L71.2524 63.3412L71.4898 63.5775L84.3849 56.28C86.2308 55.23 87.1538 53.865 87.1538 52.5C87.0219 53.7338 86.099 54.9675 84.4112 55.9125Z" fill="black"/>
<path opacity="0.25" d="M32.9896 20.0015L84.4118 49.0865C86.0731 50.0315 87.0225 51.239 87.1807 52.499C87.1807 51.134 86.2577 49.7428 84.4118 48.719L32.9896 19.634C29.2977 17.5603 26.2915 19.2928 26.2915 23.4928V23.8865C26.2915 19.6603 29.3241 17.9278 32.9896 20.0015Z" fill="white"/>
<defs>
<linearGradient id="paint0_linear" x1="57.4861" y1="22.8632" x2="13.4328" y2="67.1186" gradientUnits="userSpaceOnUse">
<stop stop-color="#00A0FF"/>
<stop offset="0.00657445" stop-color="#00A1FF"/>
<stop offset="0.2601" stop-color="#00BEFF"/>
<stop offset="0.5122" stop-color="#00D2FF"/>
<stop offset="0.7604" stop-color="#00DFFF"/>
<stop offset="1" stop-color="#00E3FF"/>
</linearGradient>
<linearGradient id="paint1_linear" x1="89.2228" y1="52.504" x2="25.4147" y2="52.504" gradientUnits="userSpaceOnUse">
<stop stop-color="#FFE000"/>
<stop offset="0.4087" stop-color="#FFBD00"/>
<stop offset="0.7754" stop-color="#FFA500"/>
<stop offset="1" stop-color="#FF9C00"/>
</linearGradient>
<linearGradient id="paint2_linear" x1="65.47" y1="58.5275" x2="5.73013" y2="118.541" gradientUnits="userSpaceOnUse">
<stop stop-color="#FF3A44"/>
<stop offset="1" stop-color="#C31162"/>
</linearGradient>
<linearGradient id="paint3_linear" x1="19.2431" y1="0.462813" x2="45.9196" y2="27.2614" gradientUnits="userSpaceOnUse">
<stop stop-color="#32A071"/>
<stop offset="0.0685" stop-color="#2DA771"/>
<stop offset="0.4762" stop-color="#15CF74"/>
<stop offset="0.8009" stop-color="#06E775"/>
<stop offset="1" stop-color="#00F076"/>
</linearGradient>
</defs>
</svg>
