<svg width="316" height="105" viewBox="0 0 316 105" fill="none" xmlns="http://www.w3.org/2000/svg">
<path d="M290.833 0H25.167C24.2163 0 23.2656 0 22.2885 0C21.4698 0 20.6776 0.02625 19.8589 0.02625C18.0896 0.07875 16.3202 0.18375 14.5773 0.49875C12.808 0.81375 11.1706 1.33875 9.55975 2.1525C7.97526 2.96625 6.52281 3.99 5.28163 5.25C4.01404 6.48375 2.95771 7.9275 2.16547 9.5025C1.34682 11.1037 0.818653 12.7312 0.501755 14.49C0.184857 16.2225 0.0792245 17.9813 0.0264082 19.74C0.0264082 20.5537 0 21.3675 0 22.155C0 23.1 0 24.0712 0 25.0162V79.9575C0 80.9287 0 81.8737 0 82.8187C0 83.6325 0.0264082 84.42 0.0528163 85.2337C0.105633 86.9925 0.211265 88.7513 0.528163 90.4837C0.845061 92.2425 1.34682 93.8962 2.19188 95.4712C2.98412 97.0462 4.04045 98.4637 5.30804 99.6975C6.54922 100.957 8.00167 102.007 9.58616 102.795C11.1971 103.609 12.8344 104.134 14.6037 104.449C16.3466 104.764 18.1424 104.869 19.8853 104.921C20.6776 104.974 21.4698 105 22.2885 105C23.2656 105 24.2163 105 25.167 105H290.833C291.784 105 292.734 105 293.685 105C294.477 105 295.322 105 296.115 104.974C297.884 104.921 299.653 104.816 301.396 104.501C303.166 104.186 304.803 103.661 306.44 102.848C308.025 102.06 309.451 101.01 310.718 99.75C311.986 98.5163 313.016 97.0725 313.835 95.5238C314.653 93.9225 315.181 92.295 315.472 90.5363C315.789 88.8038 315.894 87.045 315.974 85.2863C315.974 84.4725 315.974 83.685 315.974 82.8712C316 81.9262 316 80.9812 316 80.01V25.0425C316 24.0712 316 23.1262 315.974 22.1812C315.974 21.3675 315.974 20.58 315.974 19.7663C315.921 18.0075 315.815 16.2488 315.472 14.5163C315.181 12.7575 314.653 11.13 313.835 9.52875C313.016 7.95375 311.96 6.51 310.718 5.27625C309.477 4.0425 308.025 2.9925 306.44 2.17875C304.803 1.365 303.166 0.84 301.396 0.525C299.653 0.21 297.884 0.105 296.115 0.0525C295.322 0.0525 294.477 0.02625 293.685 0.02625C292.761 0 291.784 0 290.833 0Z" fill="#B7B7B7"/>
<path d="M22.2888 102.716C21.4966 102.716 20.7043 102.716 19.9121 102.69C18.4332 102.638 16.6903 102.559 14.9738 102.27C13.3629 101.981 11.9368 101.509 10.59 100.826C9.21679 100.144 7.9756 99.2251 6.89287 98.1488C5.81014 97.0726 4.91226 95.8651 4.19924 94.4738C3.51263 93.1613 3.03728 91.7176 2.7732 90.1163C2.4563 88.3576 2.37708 86.5463 2.32426 85.1813C2.29785 84.6301 2.29785 82.7926 2.29785 82.7926V22.1551C2.29785 22.1551 2.32426 20.3438 2.32426 19.8188C2.37708 18.4538 2.4563 16.6426 2.7732 14.9101C3.06369 13.2826 3.53903 11.8651 4.22565 10.5526C4.93867 9.18756 5.83654 7.95381 6.91928 6.87756C8.00201 5.77506 9.2432 4.88256 10.59 4.20006C11.9368 3.51756 13.3893 3.04506 14.9474 2.78256C16.7431 2.44131 18.5389 2.36256 19.9121 2.33631L22.2888 2.31006H293.685L296.089 2.33631C297.435 2.36256 299.258 2.44131 301 2.75631C302.585 3.04506 304.037 3.49131 305.411 4.20006C306.757 4.88256 307.999 5.80131 309.081 6.87756C310.164 7.95381 311.062 9.18756 311.775 10.5526C312.462 11.8913 312.911 13.3088 313.201 14.8838C313.518 16.5376 313.597 18.2438 313.65 19.8451C313.65 20.5801 313.65 21.3938 313.65 22.1813C313.676 23.1788 313.676 24.0976 313.676 25.0426V79.9838C313.676 80.9288 313.676 81.8738 313.65 82.8188C313.65 83.6851 313.65 84.4463 313.65 85.2601C313.597 86.8088 313.492 88.5151 313.201 90.1163C312.937 91.7176 312.462 93.1613 311.775 94.5001C311.062 95.8651 310.164 97.0988 309.081 98.1488C307.999 99.2513 306.757 100.144 305.384 100.826C304.011 101.509 302.611 101.981 300.974 102.27C299.284 102.585 297.541 102.664 296.036 102.69C295.27 102.716 294.451 102.716 293.659 102.716H290.807H22.2888Z" fill="#000001"/>
<path d="M65.4132 53.2875C65.334 46.0687 71.3551 42.5512 71.6456 42.3937C68.2389 37.4587 62.9573 36.7762 61.1087 36.7237C56.6721 36.2512 52.3676 39.3487 50.1229 39.3487C47.8254 39.3487 44.3395 36.75 40.5896 36.8287C35.7569 36.9075 31.2411 39.69 28.7851 43.995C23.6884 52.7887 27.4911 65.7037 32.3766 72.8175C34.8326 76.3087 37.6847 80.1937 41.4346 80.0362C45.1054 79.8787 46.4786 77.7262 50.8888 77.7262C55.2725 77.7262 56.5401 80.0362 60.3693 79.9575C64.3041 79.905 66.7865 76.4662 69.1368 72.9487C71.9625 68.9587 73.098 65.0212 73.1508 64.8375C73.0188 64.8112 65.4925 61.95 65.4132 53.2875Z" fill="white"/>
<path d="M58.2039 32.0511C60.1845 29.6099 61.5313 26.2761 61.1352 22.8899C58.2831 23.0211 54.718 24.8586 52.6582 27.2474C50.836 29.3474 49.2251 32.8124 49.6476 36.0674C52.843 36.3036 56.1441 34.4661 58.2039 32.0511Z" fill="white"/>
<path d="M111.707 71.2423H99.2155L96.205 80.0623H90.9233L102.754 47.4598H108.247L120.078 80.0623H114.691L111.707 71.2423ZM100.51 67.1736H110.413L105.527 52.8673H105.395L100.51 67.1736Z" fill="white"/>
<path d="M145.668 68.1712C145.668 75.5474 141.68 80.2987 135.685 80.2987C132.279 80.2987 129.585 78.7762 128.159 76.1512H128.054V87.9112H123.142V56.28H127.895V60.2437H127.974C129.348 57.6975 132.252 56.0437 135.58 56.0437C141.68 56.0437 145.668 60.7949 145.668 68.1712ZM140.624 68.1712C140.624 63.3674 138.115 60.1912 134.312 60.1912C130.562 60.1912 128.027 63.4199 128.027 68.1712C128.027 72.9487 130.562 76.1774 134.312 76.1774C138.115 76.1774 140.624 73.0274 140.624 68.1712Z" fill="white"/>
<path d="M171.97 68.1712C171.97 75.5474 167.982 80.2987 161.988 80.2987C158.581 80.2987 155.887 78.7762 154.461 76.1512H154.356V87.9112H149.47V56.28H154.224V60.2437H154.303C155.676 57.6975 158.581 56.0437 161.908 56.0437C167.982 56.0437 171.97 60.7949 171.97 68.1712ZM166.926 68.1712C166.926 63.3674 164.417 60.1912 160.614 60.1912C156.865 60.1912 154.329 63.4199 154.329 68.1712C154.329 72.9487 156.865 76.1774 160.614 76.1774C164.444 76.1774 166.926 73.0274 166.926 68.1712Z" fill="white"/>
<path d="M189.373 70.9799C189.742 74.2087 192.885 76.3349 197.216 76.3349C201.362 76.3349 204.32 74.2087 204.32 71.2949C204.32 68.7749 202.524 67.2524 198.272 66.2024L194.02 65.1787C187.999 63.7349 185.2 60.9262 185.2 56.3849C185.2 50.7674 190.138 46.9087 197.137 46.9087C204.055 46.9087 208.809 50.7674 208.967 56.3849H204.003C203.712 53.1299 200.992 51.1612 197.057 51.1612C193.123 51.1612 190.402 53.1562 190.402 56.0437C190.402 58.3537 192.119 59.6924 196.344 60.7424L199.962 61.6349C206.696 63.2099 209.496 65.9137 209.496 70.6649C209.496 76.7549 204.61 80.5874 196.846 80.5874C189.584 80.5874 184.672 76.8599 184.355 70.9537H189.373V70.9799Z" fill="white"/>
<path d="M220.112 50.6625V56.28H224.654V60.1387H220.112V73.2375C220.112 75.285 221.01 76.23 223.017 76.23C223.519 76.23 224.311 76.1512 224.628 76.125V79.9575C224.073 80.0887 222.991 80.1937 221.908 80.1937C217.075 80.1937 215.174 78.3825 215.174 73.7887V60.165H211.688V56.3062H215.174V50.6625H220.112Z" fill="white"/>
<path d="M227.269 68.1711C227.269 60.6898 231.705 55.9911 238.598 55.9911C245.543 55.9911 249.927 60.6898 249.927 68.1711C249.927 75.6786 245.543 80.3511 238.598 80.3511C231.679 80.3511 227.269 75.6786 227.269 68.1711ZM244.962 68.1711C244.962 63.0523 242.585 60.0073 238.624 60.0073C234.663 60.0073 232.286 63.0523 232.286 68.1711C232.286 73.3161 234.636 76.3348 238.624 76.3348C242.612 76.3348 244.962 73.3161 244.962 68.1711Z" fill="white"/>
<path d="M254.02 56.2798H258.694V60.3223H258.799C259.539 57.6448 261.731 56.0173 264.556 56.0173C265.269 56.0173 265.85 56.1223 266.246 56.2011V60.7686C265.85 60.6111 265.005 60.4798 264.055 60.4798C260.886 60.4798 258.931 62.6061 258.931 65.9398V80.0361H254.02V56.2798Z" fill="white"/>
<path d="M288.852 73.0798C288.192 77.3848 283.967 80.3511 278.553 80.3511C271.608 80.3511 267.277 75.7311 267.277 68.2761C267.277 60.8211 271.608 55.9911 278.342 55.9911C284.944 55.9911 289.116 60.5061 289.116 67.7248V69.4048H272.242V69.6936C272.242 73.7623 274.803 76.4136 278.685 76.4136C281.405 76.4136 283.544 75.1273 284.204 73.0798H288.852ZM272.268 65.9661H284.231C284.125 62.3173 281.775 59.9286 278.368 59.9286C274.988 59.9548 272.532 62.3961 272.268 65.9661Z" fill="white"/>
<path d="M99.9019 22.9163C104.576 22.9163 107.323 25.7775 107.323 30.6863C107.323 35.7 104.603 38.5613 99.9019 38.5613H94.1978V22.9163H99.9019ZM96.6537 36.3563H99.6378C102.939 36.3563 104.84 34.3088 104.84 30.7125C104.84 27.1688 102.912 25.1213 99.6378 25.1213H96.6537V36.3563Z" fill="white"/>
<path d="M110.069 32.6549C110.069 28.8487 112.208 26.5125 115.694 26.5125C119.153 26.5125 121.292 28.8224 121.292 32.6549C121.292 36.4874 119.153 38.7974 115.694 38.7974C112.208 38.7974 110.069 36.4874 110.069 32.6549ZM118.863 32.6549C118.863 30.0824 117.701 28.5862 115.667 28.5862C113.634 28.5862 112.472 30.0824 112.472 32.6549C112.472 35.2274 113.608 36.7237 115.667 36.7237C117.727 36.7237 118.863 35.2274 118.863 32.6549Z" fill="white"/>
<path d="M136.186 38.5874H133.757L131.301 29.8724H131.116L128.66 38.5874H126.257L122.982 26.7749H125.359L127.498 35.8049H127.683L130.139 26.7749H132.384L134.84 35.8049H135.025L137.137 26.7749H139.488L136.186 38.5874Z" fill="white"/>
<path d="M142.208 26.7487H144.479V28.6387H144.664C145.245 27.3262 146.433 26.5387 148.203 26.5387C150.843 26.5387 152.322 28.1137 152.322 30.9224V38.5875H149.972V31.5262C149.972 29.6362 149.153 28.6912 147.41 28.6912C145.667 28.6912 144.558 29.8462 144.558 31.6837V38.5875H142.208V26.7487Z" fill="white"/>
<path d="M156.045 22.1549H158.396V38.5874H156.045V22.1549Z" fill="white"/>
<path d="M161.67 32.6549C161.67 28.8487 163.809 26.5125 167.295 26.5125C170.755 26.5125 172.894 28.8224 172.894 32.6549C172.894 36.4874 170.755 38.7974 167.295 38.7974C163.783 38.7974 161.67 36.4874 161.67 32.6549ZM170.464 32.6549C170.464 30.0824 169.302 28.5862 167.269 28.5862C165.236 28.5862 164.074 30.0824 164.074 32.6549C164.074 35.2274 165.209 36.7237 167.269 36.7237C169.302 36.7237 170.464 35.2274 170.464 32.6549Z" fill="white"/>
<path d="M175.35 35.2274C175.35 33.1012 176.935 31.8674 179.76 31.7099L182.982 31.5262V30.5024C182.982 29.2424 182.163 28.5599 180.553 28.5599C179.232 28.5599 178.334 29.0324 178.07 29.8724H175.799C176.037 27.8512 177.965 26.5387 180.658 26.5387C183.642 26.5387 185.332 28.0087 185.332 30.5024V38.5874H183.061V36.9337H182.876C182.163 38.1149 180.869 38.7974 179.311 38.7974C177.014 38.7712 175.35 37.4062 175.35 35.2274ZM183.008 34.2299V33.2324L180.104 33.4162C178.466 33.5212 177.727 34.0724 177.727 35.1224C177.727 36.1987 178.651 36.8025 179.919 36.8025C181.688 36.8025 183.008 35.6999 183.008 34.2299Z" fill="white"/>
<path d="M188.422 32.6549C188.422 28.9274 190.35 26.5649 193.361 26.5649C194.998 26.5649 196.371 27.3262 197.005 28.6387H197.19V22.1549H199.54V38.5874H197.269V36.7237H197.084C196.371 38.0099 194.998 38.7974 193.361 38.7974C190.324 38.7712 188.422 36.4087 188.422 32.6549ZM190.852 32.6549C190.852 35.1749 192.04 36.6712 194.021 36.6712C196.002 36.6712 197.216 35.1487 197.216 32.6549C197.216 30.1874 195.975 28.6387 194.021 28.6387C192.04 28.6649 190.852 30.1874 190.852 32.6549Z" fill="white"/>
<path d="M209.232 32.6549C209.232 28.8487 211.371 26.5125 214.857 26.5125C218.316 26.5125 220.455 28.8224 220.455 32.6549C220.455 36.4874 218.316 38.7974 214.857 38.7974C211.371 38.7974 209.232 36.4874 209.232 32.6549ZM218.026 32.6549C218.026 30.0824 216.864 28.5862 214.83 28.5862C212.797 28.5862 211.635 30.0824 211.635 32.6549C211.635 35.2274 212.771 36.7237 214.83 36.7237C216.864 36.7237 218.026 35.2274 218.026 32.6549Z" fill="white"/>
<path d="M223.598 26.7487H225.869V28.6387H226.054C226.635 27.3262 227.823 26.5387 229.592 26.5387C232.233 26.5387 233.712 28.1137 233.712 30.9224V38.5875H231.362V31.5262C231.362 29.6362 230.543 28.6912 228.8 28.6912C227.057 28.6912 225.948 29.8462 225.948 31.6837V38.5875H223.598V26.7487Z" fill="white"/>
<path d="M246.968 23.8087V26.8012H249.556V28.77H246.968V34.86C246.968 36.0937 247.47 36.645 248.659 36.645C249.028 36.645 249.213 36.6187 249.556 36.5925V38.535C249.187 38.5875 248.738 38.6662 248.289 38.6662C245.674 38.6662 244.645 37.7475 244.645 35.4637V28.7962H242.77V26.8275H244.645V23.8087H246.968Z" fill="white"/>
<path d="M252.726 22.1549H255.05V28.6649H255.234C255.815 27.3524 257.057 26.5387 258.852 26.5387C261.387 26.5387 262.946 28.1399 262.946 30.9487V38.5874H260.595V31.5262C260.595 29.6362 259.724 28.6912 258.06 28.6912C256.132 28.6912 255.076 29.8987 255.076 31.6837V38.5874H252.726V22.1549Z" fill="white"/>
<path d="M276.652 35.3849C276.124 37.5112 274.222 38.7974 271.502 38.7974C268.096 38.7974 266.009 36.4874 266.009 32.7074C266.009 28.9274 268.148 26.5387 271.502 26.5387C274.803 26.5387 276.81 28.7962 276.81 32.4974V33.3112H268.412V33.4424C268.492 35.5162 269.706 36.8287 271.581 36.8287C273.007 36.8287 273.985 36.3299 274.407 35.3849H276.652ZM268.412 31.5787H274.407C274.354 29.7149 273.219 28.5074 271.476 28.5074C269.733 28.5074 268.544 29.7412 268.412 31.5787Z" fill="white"/>
</svg>
