<?xml version="1.0" standalone="no"?>
<!DOCTYPE svg PUBLIC "-//W3C//DTD SVG 20010904//EN"
 "http://www.w3.org/TR/2001/REC-SVG-20010904/DTD/svg10.dtd">
<svg version="1.0" xmlns="http://www.w3.org/2000/svg"
 width="260.000000pt" height="260.000000pt" viewBox="0 0 260.000000 260.000000"
 preserveAspectRatio="xMidYMid meet">
<metadata>
Created by potrace 1.11, written by Peter Selinger 2001-2013
</metadata>
<g transform="translate(0.000000,260.000000) scale(0.100000,-0.100000)"
fill="#000000" stroke="none">
<path d="M934 2116 c-4 -23 -8 -43 -8 -46 -1 -3 -5 -21 -9 -40 -12 -59 -15
-72 -37 -175 -12 -55 -24 -109 -26 -120 -5 -28 -11 -53 -23 -105 -5 -25 -13
-61 -16 -80 -3 -19 -15 -73 -25 -120 -10 -47 -21 -96 -24 -110 -2 -14 -45
-216 -95 -450 -50 -234 -91 -434 -91 -445 0 -20 7 -20 565 -20 l565 0 0 157
c0 119 -3 158 -12 159 -7 0 -170 1 -363 1 -192 1 -353 5 -356 10 -4 7 37 213
72 358 l8 35 372 0 372 0 1 153 c1 128 -2 155 -14 161 -8 3 -160 6 -337 5
-360 -1 -331 -8 -313 71 5 22 11 51 14 65 8 45 47 225 52 243 5 16 32 17 392
17 l387 0 -1 148 c-1 81 -2 152 -3 158 -1 8 -150 11 -520 11 l-519 0 -8 -41z"/>
</g>
</svg>
